<svg xmlns="http://www.w3.org/2000/svg" viewBox="0 0 167.03 84.023"><path style="fill:#d40000" d="M448.33 550.91c-.69.201-1.321.476-1.958.783.229-.02.468-.04.697-.057.8-.06 1.587-.107 2.393-.123-.806.05-1.574.12-2.369.214-.396.046-.784.132-1.18.186-.016.01-.051-.023-.068-.014.064.193.063.378.047.538.05.341.09.655.092.946.32-.049.666-.116.99-.169.017-.156.021-.306.038-.463.048.146.133.291.181.437.292-.049.578-.08.87-.136.04 0 .088 0 .129-.002a11.01 11.01 0 0 1 3.801-.663l48.233-.015c.117-.109.211-.238.328-.347.234.033.473.07.707.102l-.42.242h3.623c-.663-.185-1.335-.378-1.996-.565.387-.178.765-.357 1.15-.535 1.435.272 2.86.559 4.298.822-.211.094-.391.197-.602.29l44.223-.009.952-2.002-46.232-.003c.13.017.234.015.364.032-.08.114-.15.239-.229.353l-.531-.052.396-.333-7.178.015c.146.032.294.045.44.076.179.039.37.074.548.112l.045.409c-.036.053-.083.108-.119.16-.138-.038-.258-.112-.396-.152-.48-.136-.953-.256-1.432-.392-.094-.075-.19-.14-.284-.215l-45.876-.001c-.334 0-.665.014-.992.039l-.902.5c-.367.002-.74-.03-1.107-.027-.22 0-.454.02-.674.02zm-4.3 2.187a12.972 12.972 0 0 0-5.041 10.28l.008 11.742c.163.14.334.276.5.416-.174.384-.357.792-.519 1.207l.02 17.82c.68-.175 1.315-.358 1.992-.533l.016-15.275c-.103-.176-.232-.349-.335-.525.102-.38.235-.775.337-1.158l-.01-13.682c0-3.263 1.438-6.157 3.668-8.165l-1.464-.029c.107-.253.215-.531.305-.793.105-.313.17-.632.226-.967.098-.102.209-.222.298-.338zm9.568-2.207c.95-.093 1.88-.218 2.83-.306.42.02.833.064 1.252.085-.529.074-1.067.126-1.596.202-.84-.007-1.646.022-2.486.019zM446 553.443c0 .068-.009.132-.012.197l.322-.248c-.103.003-.207.048-.31.051zm.348-.029.578.104c.005-.042.024-.094.028-.136-.208.009-.4.026-.606.032zm.864-.037c.007.022.039.03.046.053.052-.025.1-.017.151-.04-.063.002-.135-.016-.197-.013zm10.01-2.48c.37-.057.71-.136 1.08-.192 1.468.076 2.935.154 4.401.244-1.837-.038-3.644-.036-5.481-.052zm14.409.41c.057.02.126.06.183.08-.06.013-.13.005-.19.018l.007-.098zm-13.303 9.032a11.74 11.74 0 0 0-3.414 1.627l.024.09-.523 1.79-.254-.223.005-1.069c-.286.234-.57.478-.837.742-1.151 1.14-2 2.44-2.602 3.932a12.945 12.945 0 0 0-.926 4.875c0 .788.042 1.558.16 2.287l1.565-2.49.11.65-.366.81-.081-.302.075.4-1 2.306c.264.937.64 1.787 1.12 2.612l.71-1.581.08.787.199.497-.007-.872-.178-.664.961-2.328.013 5.723.49 1.227c.711.64 1.539 1.22 2.44 1.74.853.47 1.799.856 2.854 1.112.798.193 1.63.26 2.477.307l.026-7.869c-.713-.192-1.366-.538-1.867-1.052-.8-.821-1.208-1.925-1.208-3.3 0-1.216.31-2.235.935-3.033l-1.053-1.756 1.092-2.687.466 1.137-.023-2.258.562-1.283.435 1.5-.013 2.851.496-1.168.176.535-.011-6.079c-1.072.065-2.123.2-3.108.477zm3.365-.481-.012 6.959.202.754c.34-.07.684-.124 1.067-.124a6.12 6.12 0 0 1 2.541.549c.8.362 1.58.9 2.347 1.635l.014-8.641c-.874-.395-1.784-.728-2.707-.925-.06-.013-.107-.008-.167-.02l.734 2.618-.46.576-.031-.477.199-.344-.231.224-.28-2.611a13.394 13.394 0 0 0-2.558-.253c-.23 0-.433.07-.658.08zm-3.487 1.355-.003.712.038.022-.022.039-.016-.06-.182-.437.185-.276zm-1.905 3.033.607.938-.277.656-.838-.713.072-.214.436-.667zm9.555-1.168.347 1.298-.67 1.118-.151-1.287.474-1.13zm13.568-2.73c-.38.11-.757.253-1.123.398-1.525.602-2.884 1.456-4.057 2.607a11.168 11.168 0 0 0-2.61 3.903c-.598 1.482-.935 3.106-.935 4.844s.341 3.357.938 4.828 1.435 2.768 2.597 3.898a12.262 12.262 0 0 0 4.078 2.66c.516.206 1.045.349 1.585.482 1.22-.317 1.923-.493 3.117-.803l.003-1.198-.381-.577-.008-.03-.506-.803.603-.162.299.632.015-4.533c-1.09-.044-1.99-.402-2.673-1.16-.05-.056-.1-.13-.147-.188l.125.226-.692.314-.13-.483.495-.326a3.784 3.784 0 0 1-.448-.948l-.305.308-.433-1.372.177-.306.44.917a5.984 5.984 0 0 1-.175-1.376c0-1.333.388-2.39 1.114-3.21.683-.774 1.55-1.213 2.64-1.258l.012-7.8a13.587 13.587 0 0 0-3.615.516zm-26.283 7.56.01 3.297-.331-2.079.32-1.218zm30.125-8.072.018 3.812.906-.242.168.99-.78.468-.3-1.117.005 3.881a4.19 4.19 0 0 1 1.148.178l-.394-1.35.577-.381.334 1.851-.082.055c.454.204.888.473 1.235.866.72.815 1.063 1.898 1.063 3.241 0 1.333-.356 2.428-1.075 3.232-.71.795-1.662 1.167-2.823 1.177l.024 5.041.26.61-.263.103-.006.098.378-.037.095.234-.247.163-.077-.044-.141-.286-.003.713c3.424-.889 5.773-1.476 8.959-2.304.013-.009.012-.028.022-.038l-2.796-.415.349-.87 2.901.807a12.017 12.017 0 0 0 2.134-3.386c.608-1.477.89-3.051.89-4.768 0-1.727-.305-3.354-.907-4.836a11.636 11.636 0 0 0-2.636-3.92c-1.184-1.152-2.515-2.036-4.04-2.638-1.51-.597-3.155-.883-4.896-.888zM466.54 566l.021 1.288-.796.407-.106-.877.88-.818zm-8.355 2.626-.008 4.92-.963.873.971-5.793zm-5.62 1.603-.241.55.108-.32.132-.23zm74.766-18.35.472.067c-.106.108-.192.23-.298.339l-.676-.11c.158-.1.344-.197.502-.297zm-38.203 11.368-1.04 1.185.013-.553 1.027-.632zm11.094-2.908-.202 1.057 1.584-.489.03.477-1.8 1.13-2.36 13.768.651 1.346-.392.105-.3-1.117-.503 2.95c.638-.166 1.245-.34 1.871-.502l.946-.577.089.332c.59-.153 1.203-.327 1.78-.477l.007-.098-.353-.715 2.385-1.48-1.41.41-.01.326-.175-.05.064-.243-1.208.323-1.007-2.189 3.279-2.01.129-.003.024.091-.008.455.172-.564.94.007-.376 3.304-.384.135.356.002-.213 1.74c.42-.11.914-.249 1.328-.356l.306-2.962c.064-.714.118-1.414.177-2.118.053-.636.116-1.266.165-1.92l-.01-10.06-5.572-.027zm6.088.02.022 9.86c.096.673.206 1.38.377 2.132.17.752.38 1.562.647 2.415l.408 1.282 1.296.009 1.89-.798.058-.145.123.097.466-.19-.245.292.582.362c.232-.06.586-.159.815-.218v-1.327l-.545-.468.535.309-.005-.743-.034-.25-.099-.005c-.039-.386-.13-.801-.202-1.24l-.385.135.026-.266.37-.067c-.027-.159-.06-.294-.09-.46l-.242.064.11-.676c-.042-.199-.115-.397-.162-.604l-.353-.229-.002 1.683-.933.38.897-2.085-.23-.133.214.073.066-.115-.014-.417.134-.1c-.036-.144-.044-.284-.083-.431-.128-.49-.289-1-.442-1.532-.107-.362-.165-.634-.219-.815l-1.681-5.793-3.07.014zm5.375 9.073-.006.1.32.107c-.045-.197-.119-.429-.17-.633l-.144.426zm-2.625 6.624-1.175.445.057.211c.926-.24 2.19-.595 3.079-.825l-.131-.127-.988.297h-.842zm-16.844-10.822.709 1.558-.465.318-.873-1.448.096-.123.533-.305zm-2.405 1.648-.002.356-1.72 1.917-.001-1.456 1.257-.499.465-.318zm63.389-16.5c-.333.675-.676 1.337-1.013 2.018l1.259-.013-.107-.037.15-.04.017.06 18.352.033c.498-.2 1.023-.403 1.521-.602.517.043 1.032.058 1.548.103l-.225.125c.374.071.76.175 1.133.246.088-.08.166-.182.254-.262 1.547.12 3.095.239 4.63.377l6.178-.005-1.24-.282c.79-.194 1.573-.407 2.362-.6.335.1.656.216.99.316-.085-.199-.135-.387-.221-.587-.096-.289-.21-.583-.295-.86l-22.384.013c1.497.291 3.006.571 4.502.864-.465.196-.927.404-1.392.6-1.382-.166-2.796-.335-4.178-.498-.35-.041-.652-.082-1.003-.12.075-.03.13-.056.204-.087-.51-.029-1.009-.082-1.518-.11l-.045-.41c.78.015 1.564.037 2.343.052-.02.048-.007.09-.028.137.37-.15.744-.278 1.115-.428l-12.91-.003zm-36.635 9.978-1.717 5.669a57.554 57.554 0 0 0-.972 3.495l.99-2.465 2.898-.291.03-.008.09-.025.308-.664.213.072-.347.514.905-.243-.066.115-4.628 2.89.905-.243 3.406-2.141-.886 1.402-2.52.74 1.713-.007.489-.228-.133.23-.356-.002-.497.198.677.11-.141.2-.739-.223-2.537 1.035c-.067.318-.118.613-.174.92l.038.023.566-.184.286-.983 1.402.401.885-.56-.34.543-.066.115.068.014-.017 2.593-2.269-1.948.014-.068-.529.077-.06.016a29.022 29.022 0 0 0-.24 1.52l.034.25-.005 1.068 1.195.716c.803-.208 2.17-.556 2.936-.755l-.254-.223.08-.183-.148.17-.431-.403.65-.595.229.133-.3.695.483-.615.306.177.502.545c.068-.245.13-.495.192-.73l-.799-.207 1.158-1.475.038.022c.088-.44.176-.88.236-1.293v-9.9l-2.752-.007zm-.318 10.406-.083.054-.186.633.269-.687zm-.06-1.31.203-.087-1.216-.192 1.013.278zm-26.372-1.83-.003.712-.12.517-1.605 1.013-.013-.288 1.741-1.955zm29.987-7.26.015 7.179.29-.725 2.887 1.717-.317.506-2.872-1.3-.011 2.493c-.002.013.01.018.008.03.03.507.096.98.138 1.484l.838.228-.754.688.075.885c.106-.027.318-.086.423-.113.644-.17 1.288-.347 1.932-.518l1.258-4.963.162.604.185-1.603.693-1.156.346 1.169-2.161 5.82c1.53-.405 3.065-.795 4.596-1.2l-1.78-11.233-.94-.007-.24 2.005-.45.25.006-2.267-4.328.028zm-51.779 14.069c-.992.757-1.917 1.33-2.754 1.676-.837.346-1.637.526-2.447.526-.404 0-.777-.043-1.131-.117l-.005 7.83c.19.007.368.044.561.044.917 0 1.823-.095 2.74-.281.917-.187 1.827-.492 2.744-.865l.292-8.813zm33.596-9.002.005.742-1.932.518-.008-.03 1.935-1.23zm-23.114 6.225.06-.016.136.384-.09.025-.106-.393zm10.992-2.201-.08.183-.264.103-.426.341.62-.101-.073.213-.712-.003-.479.387-.007-.386.485-.001.165-.109-.636.041.006-.098 1.057-.284.344-.286zm3.858-.937.18-.048.182-.049.432.888.13.126-.06.016-.07-.142-.63-.543-.164-.248zm6.369-1.706.807.236 1.077-.45.024.09.146.544-.195.117.213.072.368 1.131-1.884.214-.168-.505 1.47-.912-1.05-.3-.67.276-.138-.513zm-10.614 3.976-.293 1.081-.722.323.002-.356.12-.032.893-1.016zm29.197-7.79.002.128-2.4 1.549.422-1.084 1.976-.594zm-23.866 6.556.324.366-.301.08-.166-.376.143-.07zm37.004-9.204-.025 9.81.348-.514-.159.01.048-.304.447-.022.217-.156-.652-.02.14-1.169.444-.151.3 1.116.134-.1.3-1.051-.515-.477.305-.793.659.405.629-.912-.438 1.023.123.096-.267.33-.244.422-.115 1.26-.386.006-.014.069.348-.029.016.06-.422.114-.017-.06-.407 1.014c.957-.252 1.919-.485 2.876-.738l-.5-.416-.356-.002.378-1.363-.173-.407.75.026.821-.802-.373.779.652.02-.613.972.24.777-.197-.012.186.21c.665-.176 1.327-.36 1.992-.534l.423-1.44 1.622.018.025-4.374-.515 1.82-.105.934-.232.224.337-1.158.205-1.77.306-.308-.003-2.426-8.543-.008zm-9.053 3.04.032.122-.022.038-.01-.16zm-17.664 4.831.197.012.017.06-.206-.042-.008-.03zm61.556-16.461c1.09.115 2.142.214 3.227.332.047.038.124.11.17.149-1.163-.028-2.344-.038-3.511-.062.032-.129.082-.29.114-.419zm-50.558 13.676 1.63.405.269-.202.044.409-.315.149-.139.328-1.611-.7.122-.389zm19.89-4.974.03-.008.01 1.486-.022.038.005.743-.755 1.043-.491 1.911-.147-1.028.638-.883.19-.86.56-.926-1.505 1.989-.126-.71 1.613-2.795zm-55.142 15.163.614 1.324-.433.44.574-.154.33.752-.75.46-.647-1.088-.424-1.343.626-.2.11-.19zm29.614-7.32.01.159-.189.018.006-.099.173-.078zm66.415-17.764c.217.043.43.074.646.118-.206.106-.417.222-.623.329-.043-.005-.086.007-.13.002-.299-.012-.617-.034-.917-.046.332-.133.692-.27 1.024-.403zm1.134.246c1.514.305 3.057.621 4.556.947.17.023.331.035.501.06l-.15.04c-.13-.035-.222-.066-.35-.1-1.621-.227-3.266-.457-4.901-.66.12-.102.223-.187.344-.287zm-89.565 24.096.017 1.03-2.655 1.683-.13-.483 2.768-2.23zm16.558-3.887-.116.775-.946.577.087-.282.975-1.07zm39.883-10.654.006 6.663c1.08-2.215 2.16-4.436 3.23-6.657l-3.236-.006zm-12.808 3.756.553.013-.028.137-.505.168-.02-.318zm-21.62 5.89.011 1.97-1.34.553.58-2.064.75-.46zm38.15-9.64c-1.098 2.199-2.147 4.353-3.3 6.643.202-.053.402-.11.604-.162l.781-1.31-.08.184-.701 1.126 6.679-1.758-.004-4.722-3.98-.001zm-43.758 11.887-.012.197-.968.13.022-.038.958-.29zm-22.47 6.7.275.54-.53.434-.521-.734.777-.24zm106.49-28.57c.106.27.233.532.348.813.125.231.248.446.375.675.572.172 1.15.338 1.722.51l2.009.011c1.503 0 2.938.3 4.236.839l.03-.008c.936-.248 1.872-.505 2.808-.752a12.976 12.976 0 0 0-3.11-1.464c-1.054-.1-2.097-.187-3.151-.288.048.262.122.5.172.762-.082-.266-.171-.538-.249-.807-.584-.056-1.169-.088-1.753-.144.21-.051.395-.111.604-.162l-4.04.015zm-36.058 9.953-.013 4.662c.887-.233 1.778-.448 2.665-.682l-2.356-3.962-.296-.018zm-3.796 1.05-.36 1.552-.714.353 1.074-1.906zm-37.963 10.333.977-.1-.01.326-1.17.346.203-.572zm-.631.299.007.386-.664.178-.258.004-.555.343.138-.328.417-.015.915-.569zm22.158-5.808.352.229-.49.584-.208-.17.044-.077.302-.566zm-33.405 9.112.548 1.924-1.11.33-.271-1.74.833-.513zm37.565-9.644-.205.443-.531.433.164-.594.572-.282zm-50.333 13.55.31-.05 1.72-.461-.014 1.88-.003 1.198-1.415.152-.741-2.648.12-.032.022-.038zm49.574-13.121v.485l-.973.713-.08-.658 1.053-.54zm-10.667 3.052.416-.015.175.892-.59.093-.001-.97zm-6.733 2.16.693.17-1.225 1.105-.108.32-.176-.05.284-.27.532-1.275zm-29.225 7.928.137.028.184 1.05-.578-.104.257-.974zm70.8-18.906-.015 2.721c2.7-.71 5.405-1.396 8.106-2.107l-.003-.614h-8.088zm-51.548 13.845 1.198.003.682.011-.453.122.183.08-.088.153-.216-.201-1.448.388.142-.556zm16.688-3.404.51.09.227.004-.022.038-.206-.042-.515.01.006-.1zm-11.71 3.752-.016.781c.194-.05.502-.136.694-.186l-.677-.595zm26.747-7.037-.59.935c.19-.05.381-.104.573-.154l.017-.781zm-101 27.32-.01 4.435c.667-.046 1.334-.101 2-.148l.002-4.82c-.679.175-1.312.357-1.993.533zm41.412-10.741c.662.133 1.342.226 2.043.261l-.405-.668c-.632.164-1 .241-1.638.407zm1.759-.439.778.73c.015 0 .052.014.068.014l-.001-.97c-.325.084-.518.141-.845.226zm1.116-.3-.012 1.04c.442-.001.875-.042 1.302-.09l-.275-.542.488.128.354.358a12.777 12.777 0 0 0 2.967-.762 12.178 12.178 0 0 0 3.735-2.36c-3.063.795-5.277 1.378-8.559 2.229zm13.586-3.51-.661 3.93 3.812-.018.251-.876-1.214-.548-.228-1.33.023-.039.189-.018-.212.056.39.123 1.036 1.695.152-.396-.548-1.083.769.215.28-.884.244.064.106-.45.361-1.067-.003-.614c-.559.146-1.15.314-1.72.462l.394 1.35-.817.09-.581-1.204c-.112.029-.22.06-.332.09l.168.99.147.186-.12.033-.027-.22-.414-.698-.056-.21c-.468.12-.914.248-1.389.371zm4.75-.626-.141 1.041-.181.049.189-.019-.06.502.183.08-.003-.614 1.983-.208-.042.206.186.694-.842-.001-.086-.203-.073.213-.78-.017.281.086.001.97.206.043-.496 1.653-.114-.066-.028.136.15-.04.009.03 2.494.011.64-6.06c-.404.105-.886.242-1.297.348l-.186 1.603-2.014.572.02-1.009zm6.413-2.268.216.686 1.683.002-.163.238-1.35.394.346 1.17.008.03 1.1 3.62.76.184-.128.487.356.002.153-.397.602.195-.17.207.583.005.701-1.126.015-.91-.85 1.296-.524-.507.516-1.335.787.404-.61-.71.465-1.16-.727.906-.232-.26.08-.184-.126.13-1.182-1.268.23-.353-.002-.128 1.96 1.157.199.14.01-2.137-1.528-1.597c-.912.236-2.224.572-3.177.82zm4.204-1.094.505.317.008-.455c-.144.038-.367.1-.513.138zm.996-.267.007.872.544.34-.11.19-.03.009-.408 1.015-.001 2.168.336.168-.331.574.015.902-.022.038-.004 1.554.732-.649 1.433-1.29.736.45.415-1.47.052-.046 1.686-5.66c.054-.179.073-.342.12-.518l-.15.04-.41.402-.255-.224c-.74.192-2.07.53-2.845.73l.046.053-.074.084-.237.323-.339-.298c-.25.065-.652.177-.905.243zm6.898-1.784c.02.224.03.443.05.667l.268 2.451.418-.37.625.64-.251.391-.792-.66.2 1.951 1.2 1.944-.61 1.101 1.162-.247-.016 1.752-1.193.255-.006.098 8.247-.01-.162-1.088-.167-.02-.196-.368-.251.39-1.009-.02-.128-.84.014-.068-.072-.272-.294-1.7.15-.04.602 1.035.138-.328.823-.188-.965-6.018-.902.015.6-.42.243.065-.186-1.18-.039-.022.044-.076-.111-.78c-1.45.383-2.488.643-4.747 1.24l-.414 1.114-.009-1c-.974.257-.786.214-1.962.526l-.302.08zm8.777 8.487.251-.391-.144-.9-.676.375.57.916zm3.155-11.651-.503.296-.135.1-.008.456.46.265-.037.107.115.066-.52.236-.01 1.168.294-.111.005 1.228-.286.14-.022 3.177.277-.171.019.19.11-.192.044-.077.3-.21-.103 1.064-.234.094.206.043-.074.57-.083.054-.17-.634.008-.455-.166.465-.128.487.017 4.654 1.022-.532-.186.632 1.653.01.567-.54-.143.556.546-.017.421-1.084-1.356.008-.327-.01-.096.123-.913.698.285-.626.368-.196-.386.006-.057-.211-.14.199-1.13.011.103-1.063 1.013.279.154.573.265-.459.572.203-.116.29.112-.063.034-.235.35.1.03-.008 1.235.381.072-.213 2.367-2.155-1.318 2.326-.67 1.118.424.016c.22-.435.433-.872.653-1.307 1.056-2.089 2.098-4.182 3.139-6.276l-.002-6.89-.073.213-.225.125-.156.624.283-.27-.459 1.546-.016-.545.192-.731-.754.687.091-.866.82-.445.231-1.066c-.228.06-.51.138-.724.195l-.243.42-1.107-.026-.008-.03c-.453.119-1.28.344-1.69.452l.092.105-.418.37-.113.063-.377-.32c-.752.199-2.462.632-3.207.828a4.499 4.499 0 0 1-.06.016zm-.346 7.404.106-.45-.116.29.01.16zm13.07-10.75c-.085.17-.194.36-.279.529l.007 11.257 3.17-.365-.197.474-.742 1.816-1.388.858.266-.816.738-1.233-1.852 1.661v2.297l.387-.007.4-1.402.23.133-.175 1.276 5.564-.003 1.076-.45-.114.419-.09.024.871-.007-.028-8.436c0-.746-.014-1.42-.057-2.023a19.46 19.46 0 0 0-.147-1.514l-.22.027.013-6.474c-5.47 1.446-1.188.308-7.433 1.96zm7.675-2.023-.012 6.473 7.138 12.031.22-.026-.01-11.385-.44-.917-4.12-6.92c-1.932.51-.74.205-2.776.744zm7.343-1.936.006 4.852c0 1.066.014 1.945.052 2.607.029.51.059.982.122 1.423l.055.082.008.03-.004 11.454 7.852-.033.011-4.306-2.127-1.177 1.052-3.68.57.56-.004 2.88.51-1.236-.005-15.593c-4.35 1.149-2.946.776-8.098 2.137zm37.703-9.973a10.997 10.997 0 0 1 3.206 2.183c.437.094.87.202 1.308.296-.158.219-.315.426-.474.645.645.798 1.204 1.647 1.606 2.61.259.042.524.105.783.147.052.041.108.076.161.118l-.896-.083c.507 1.269.782 2.667.782 4.125l.002 19.93c.671-.075 1.341-.142 2.013-.217l-.014-19.73c0-4.473-2.258-8.401-5.691-10.737-.6.158-2.122.538-2.785.713zm-94.179 25.591-.094.252.087.203.008-.455zm12.348-3.179.574.331-.405.66-.577-.461.408-.53zm23.108-5.642-.47.417-.023.88-1.38 1.373 1.55.231-.011.198-.215.769-1.973-.604-.052.047-3.877 2.074 1.034-2.542 2.269-1.19.021.803.167.02.894-1.372 2.066-1.104zm-38.454 10.433.136.384-.773.013-.079-.173.716-.224zm26.406-6.978.145.058-.482.614-.417.015.754-.687zm6.04-1.49.608.097-.1.35-.283-.086-.267-.155.042-.205zm-10.376 2.813.06 1.796 1.722-1.303-.064.244-.15.526-.431.083-1.067.609.024.932 1.114-.428-.479 1.713-.052.047.046.052-.187.147-.038-.022-.336.317-.177.306.015-1.395-.661-.535.3-.21.193.24.172.277-.004-3.396zm.162 4.713.257-.49-.095-.233.022-.039.17.15.345-.643-.736.391.037.864zm-8.045-2.374.758.412-.9 1.47-.69-.398-.185-.209 1.017-1.275zm18.701-4.461-.25.876-.42.242.135-.942.535-.176zm46.85-12.424c-.376.11-.738.218-1.1.36a11.84 11.84 0 0 0-4.027 2.6 11.553 11.553 0 0 0-2.632 3.94c-.603 1.487-.904 3.087-.904 4.836 0 1.066.116 2.11.34 3.08l.058-.146 1.025 1.052-.619.587c.034.088.06.145.095.233.597 1.482 1.46 2.837 2.622 3.989.32.314.661.589 1.007.862l.052-.532-.218-.815.014-1.395.44.433-.088.638-.154-.088.14.156-.134 1.071.232.747c.053.039.078.089.131.127l.182-1.375.893 1.28-.331.575c.25.153.524.269.787.404l.064-.244.063.113.103.263c.282.137.59.295.886.41.952.37 1.933.615 2.984.753l.287-.498.374.548c.123.01.27.016.394.023l-.737-.579.243-.42.832.812-.08.183c.112.005.25.03.364.032l-.02-7.08c-1.078-.118-1.93-.579-2.563-1.352-.746-.911-1.125-2.186-1.125-3.84 0-1.598.408-2.852 1.149-3.801.658-.843 1.503-1.336 2.56-1.43l-.012-7.05c-1.252.022-2.446.21-3.577.538zm3.835-.542.004 7.02c.053-.003.083.027.137.027.714 0 1.348.14 1.902.46.555.32 1.063.804 1.457 1.454l7.473-2.778c-1.183-2.026-2.707-3.58-4.573-4.63s-3.972-1.561-6.37-1.561l-.03.008zm-74.485 20.249.145.058-.201.216-.123-.097.179-.177zm29.952-7.993.018.674-.63.784-.458 1.675 1.13-1.823.013.773-1.143 1.05-.458.705.45-1.22.009.515.093-.737.267-.815.097-.123.158-.496.297-.823.157-.14zm-29.73 8.095 1.84.833-.333.446-.187.632-1.505-1.635.185-.276zm16.843-4.513.304 1.86-.39.234-.492-1.713.578-.381zm-87.494 23.735v19.443l1.995-.405.013-12.75-.066.115c-.092-.075-.201-.17-.293-.245l.089-.154c.082.045.178.08.26.125l-.008-6.307-1.991.178zm64.327-17.107.884.28.264.868-1.278.18.13-1.328zm32.146-8.258.535.31-1.486 1.336-1.53-.399 2.48-1.247zm-8.045 2.577-.219.511-.12.033.339-.544zm10.568-1.732-.543 1.957-.091.024-.03.008-3.27 2.042.1-.707 3.17-1.335-3.123.902.189-1.83 2.73-.796.868-.265zm7.404-1.466.523.021-.029.978-.686.217-.332.089.189-.504.189-.018-.167-.02.313-.763zm32.822-8.633.177.179-.106.449-.04.334-.407-.311.376-.651zm-31.851 8.631.712.003-.162.723-.241.065-.393.105.084-.896zm-22.596 6.346.876.736-1.02.176-.337-.653.48-.259zm24.378-6.338.257-.004-.32.377-.482.13.545-.502zm.386-.007.88.023-1.095.261.215-.284zm-35.783 9.653-.299.695.296.018.003-.713zm27.228-6.325c-.515 1.012-.99 1.992-1.518 3.027l.628-.07-.356.483-.06.016-.57.768-.258.004c-.458.894-.846 1.67-1.314 2.584-.033.065-.077.126-.11.191l3.108.008.454-.478-.004-6.534zm-1.306 3.456-.425-.016c-.014.027-.03.05-.044.077l.469-.061zm-14.128 1.003 1.073-.223-.81 1.932-1.034.245.343-1.257.428-.697zm-8.985 2.57.03-.009-.03.008zm18.508-4.7.74.222-.583.965-.31.05.153-1.238zm-2.205.946.282.086.257.837-.659.08.12-1.003zm3.02-.68.061-.016 1.508.437-.056.274-1.703.165-.18.048.37-.908zm41.055-10.871 1.859 1.022-.181 1.86-.902-.47.206-.799-.406.659-1.485-.832.909-1.44zm-13.73 3.938.084.074-.054.403-.123-.097.093-.38zm-28.341 8.208.137.028-.097.123-.03.008-.01-.159zm.449.106.211-.056 1.733-.173-.136.457-1 .009-.633-.187-.175-.05zm33.088-8.121.002.128-.047-.052.045-.076zm6.858-1.45.916 1.728-.317.506-1.079-1.49.48-.744zm-22.799 6.918-3.045 1.916 1.665-1.514 1.38-.402zm-6.013 1.708-.927.281.02.318.907-.599zm15.783-4.002.643.345-.14 1.17-.867-.22.364-1.295zm22.657-5.877.017 5.495 3.207.014c-.096.608-.38 1.061-.886 1.402-.507.342-1.182.534-1.992.534-.12 0-.22-.033-.335-.04l-.01 7.088.039.022c2.399 0 4.506-.555 6.393-1.616s3.436-2.568 4.63-4.573c.49-.853.892-1.851 1.148-2.96.256-1.109.37-2.347.37-3.69 0-.182.008-.38-.003-.614-.01-.235-.034-.573-.055-1.053l-12.523-.01zm-11.268 3.828.977 1.712-.523.463-.948-1.363.494-.812zm-100.32 27.658c-1.188.39-2.251.96-3.154 1.75-1.802 1.579-2.686 3.64-2.686 6.156 0 1.457.376 2.684 1.124 3.71 2.572-.532 5.345-1.124 8.332-1.747l-.01-.159-.269-.155-.068-.014-.016-.06.084.074.28-.042-.015-.902-.475.16-.13-.969.48.099-.553-.37-.024-.09c-.181-.171-.266-.328-.266-.512 0-.352.174-.614.494-.812a1.71 1.71 0 0 1 .467-.19l-.004-6.534c-.063.002-.105-.021-.167-.02-.635.023-1.245.098-1.824.198l.018.19-.38-.093c-.426.088-.842.201-1.238.332zm103.5-27.378.485.84.188.824.558.756-.125 1.101-.433-1.857-.684-.982-.009-.515.02-.167zm-30.419 8.183.137.028.01.159-.183-.08.036-.107zm-69.237 18.584.018 6.465c.192-.03.364-.063.598-.063.768 0 1.572.146 2.388.46.816.315 1.631.787 2.441 1.384l2.566-6.122a18.5 18.5 0 0 0-3.954-1.594 15.063 15.063 0 0 0-3.958-.524c-.034 0-.064-.006-.099-.006zm-2.114.922.012.288-.734.52-.146-.543.868-.265zm113.51-29.995.879.865.838 3.01.004.258-1.706-.934-.016-3.199zm-36.996 10.56.161.119-.001.841.06.47-.14-.286-.35-.1.27-1.044zm-72.724 19.94 2.65.713-.193.73-2.437-1.126-.02-.318zm97.963-24.147.536.31-.036.591-.522-.377.022-.524zm.995.575.038.022.297.988-.415-.342.08-.668zm-102.33 27.904.38.092.035.25-.36-.26-.055-.082zm21.09-5.328c-.28.073-.565.165-.837.257l.184 1.05-.467.19-.305-1.018c-.229.091-.45.172-.67.277l.289.472.28.443-.264.103-.03.008-.955.418-.62-.74c-.73.459-1.427 1-2.057 1.619-.389.378-.737.804-1.063 1.223l2.037 1.201-.372.908-1.814-1.94c-.327.439-.635.89-.894 1.372l.186.209 2.207.994c.224-.047.507-.117.732-.164l-.092-.105.735-.876.774.472-.155.268c1.745-.367 3.821-.836 5.627-1.217l-.115-.066.545-.502.03-.008-.007-.03.418-.371.006-1.91-.717.224-.004-.258.013-1.524.716-.224-.003-1.099-.73.293.002-.356a13.5 13.5 0 0 0-2.609.407zm2.917 4.848.262.253.142-.07.004-.228-.408.045zm.262.253-.654.337c.255-.053.536-.126.793-.18l-.14-.157zm-10.551.951-.222-.102c-.182.344-.343.704-.49 1.07-.094.232-.154.467-.23.708.63-.132 1.466-.333 2.106-.468l-1.165-1.208zm88.456-27.39.763.798.04.151-.841-.486.037-.463zm-77.513 20.9.01 1.128 1.381-.402-.241 1.877-1.147.307.014 1.743 1.434-1.29.082-.054-1.255 1.954-.221.382 9.064-1.91c-.07-.073-.122-.169-.194-.24a11.922 11.922 0 0 0-2.081-1.61l-2.33.236.38-1.234c-1.504-.593-3.134-.889-4.866-.896l-.03.008zm.278 5.263-.258.004-.006.098.263-.103zm79.72-26.667.156.217-.13.358-.047-.052-.222-.102.244-.421zm.303.404 1.087 1.52.1.135-.022.038-.078-.173-1.187-1.17.1-.35zm-85.325 22.895.344.199-.418.37.074-.57zm.451.235.323.237.12-.032.083.43.103-.221.689.398-.658.564-.385-.35-.03.008-.13-.483-.148.17.18.307-1.317.159-.379-.449 1.29-.378.079.174.18-.534zm83.804-22.294.377.32-.321.733-.44-.433.384-.62zm.661.535 1.19.942-.515.85-.895-.925.22-.867zm-85.895 23.307.16.96-.143.07-.017-1.03zm.576-.025 1.524.012.048.181-1.054.412-.518-.605zm-54.7 14.883.013 2.1c0 .24.015.467.027.704.324.088.628.208.953.295-.036.122-.056.257-.092.38-.274-.115-.568-.241-.84-.357.015.198.009.41.033.606.176.065.357.115.533.18-.066.18-.143.363-.21.542l-.077-.044c-.056-.07-.099-.148-.155-.217.129.797.348 1.552.615 2.294.071.115.123.252.195.368.552.312 1.12.633 1.676.942l-.023.394c-.03.049-.067.075-.097.123-.377-.253-.76-.475-1.134-.731-.14-.237-.284-.49-.422-.728-.033-.018-.051-.057-.084-.075a12.949 12.949 0 0 0 3.404 4.976 12.947 12.947 0 0 0 8.69 3.334h58.073l1.08-2.004-59.142-.006c-2.503 0-4.798-.811-6.64-2.2-.006-.005-.023.014-.03.008-.275-.182-.522-.38-.797-.563.273.782.535 1.515.856 2.23.045.073.11.166.163.247-.07-.078-.153-.13-.215-.2-.454-.764-.84-1.598-1.24-2.451-.007-.041-.024-.08-.032-.12-.337-.226-.684-.44-1.02-.666.159-.072.332-.156.49-.228-1-1.204-1.75-2.643-2.163-4.209-.292-.075-.607-.136-.898-.212l.196-.473c.187.06.386.142.572.202a11.263 11.263 0 0 1-.244-2.36l.003-2.525c-.673.145-1.344.298-2.017.443zm37.205-9.904.242.42-.294.111.023.932.87-.136.171.278c.235-.05.405-.09.642-.14l.004-.227.19-.019-.2-.14-.017-.546a10.862 10.862 0 0 1-1.631-.533zm23.802-6.313-.127.13.002.13.125-.26zm-6.88 2.943.289-.013.154 1.059-.445.151.003-1.197zm-14.675 4.03-.223.738c.659-.137 1.1-.237 1.775-.378-.219-.068-.46-.118-.692-.17a51.9 51.9 0 0 1-.86-.19zm-10.72 3.098c.044.054.064.112.11.165.927 1.087 2.292 1.855 4.04 2.282.3.064.708.165 1.24.282 1.653.341 2.467.824 2.467 1.475 0 .373-.17.692-.5.91-.331.219-.761.326-1.337.326-.82 0-1.704-.196-2.648-.585-.943-.389-2.01-1.014-3.215-1.856l-2.71 6.55c1.536.874 3.07 1.532 4.605 1.969.934.266 1.872.47 2.807.574l-.282-.086.036-.107.863-.037-.094.252c.441.036.872.069 1.313.069.308 0 .598-.027.893-.046l.117-.29h.485l.004-6.504-.205.443-.147-.187.31-.536.03-.008.008-5.761-.12.032-.138-.998c-2.643.557-5.29 1.111-7.932 1.672zm27.397-7.147.88.023.18.308-.665.178-.395-.509zm-18.974 5.376.016.06.356.002-.191-.11c-.061.012-.12.035-.181.048zm1.133-.24.46.75-1.584.49.015 12.613 1.508-.048c1.547-.391 2.871-1.08 4.005-2.076 1.872-1.642 2.827-3.764 2.827-6.355 0-.764-.094-1.461-.308-2.117l-.42.242-2.098.627.837-2.069.958-.289a5.631 5.631 0 0 0-.349-.456c-.514-.62-1.167-1.113-1.89-1.5l-.174.435-.902.016.472-.774c-.115-.047-.239-.088-.358-.13-.704.148-1.404.319-2.107.467l-.281.884-.06.016v-.841l-.551.115zm9.925-2.077c-.038.124-.095.234-.13.359l2.814-.366-.448-.462-2.236.47zm3.18-.69-.35.87.676-.86.703.33.242-.066-.41-.44c-.286.06-.575.106-.86.166zm1.27.274.132.127-.03.008-.121.032.076.045-1.195 1.938-.069-.014.047.052-.053.046-.207.315-1.052.055.423-.955.978-.456-.548-.597-.063-.113-1.221.392-.907.6.723.162-1.098.973-.129.002-.03.008-.67.277c-.015.14.003.313-.008.455l.052-.047-.092.38c-.011.232-.042.455-.042.691 0 1.429.227 2.79.63 4.038l.12-.518.632.187-.118 1.131-.334-.04c.025.063.022.12.049.181l.26.125-.07.342a11.296 11.296 0 0 0 2.367 3.28 12.145 12.145 0 0 0 4.07 2.63c1.465.585 3.034.884 4.707.907v-5.792l-.092.381-1.029-.339-.21-1.27-.933.865-1.108-.512-.08-.658.258-.004.468.78.472-.773h1.812l.449.106-.01-.645c-1.09-.044-1.969-.44-2.651-1.198a4.028 4.028 0 0 1-.933-1.789l-.29.725.012.288-.526-.15-.626-2.097.769.215.334 1.851.036-.107.024-.88.134-.585c-.023-.218-.02-.441-.02-.674 0-.76.104-1.408.339-2l-1.068.966.016.06-.143.07-1.516 1.345-3.324 1.603 4.418-2.834-.242.065-.194-.725-.868-.22 3.435-3.12 2.284-.289-.392.59-2.45.754.78.502c.683-.767 1.6-1.16 2.687-1.205l-.01-1.97c-.246.051-.496.082-.741.134l.554.498-.251.39-1.804.031.889-.788c-1.747.365-3.488.746-5.235 1.111l-.37.552-.263.103zm-.02.168-.22-.103-.747.233.968-.13zm7.482-2.264-.004 2.04c1.162.01 2.108.413 2.818 1.218.72.815 1.055 1.868 1.055 3.211 0 .532-.044 1.018-.158 1.466l.554.013-.327 2.644.132-.23-.152.397-.046.433-.427-.145v-2.297a3.816 3.816 0 0 1-.621.943c-.71.794-1.654 1.197-2.815 1.207l-.011.683.137.028-.137.457.014 6.693c1.71-.006 3.32-.305 4.836-.908.518-.205 1.02-.425 1.497-.692l-.846-.258.145-.427 1.009.506c.812-.487 1.555-1.096 2.244-1.766a11.987 11.987 0 0 0 2.546-3.659l-.137-.028.252-.39.068.013c.575-1.442.846-3.022.846-4.691 0-1.727-.297-3.324-.9-4.806-.542-1.335-1.332-2.526-2.319-3.585-3.086.644-6.168 1.285-9.253 1.93zm-10.306 3.797.29.116-.468.546-.072.214-.129.002.201-.216.178-.662zm34.457-9.168c-.281.073-.562.165-.837.256l.137.028c1.148-.242 2.084-.462 3.24-.706-.876.054-1.724.21-2.54.422zm-2.094.755c-.879.408-1.685.926-2.438 1.527l.59.392.334.04.049.18-.383-.22-.912-.144c-.22.188-.418.35-.627.556a11.49 11.49 0 0 0-2.663 3.949c-.597 1.482-.882 3.06-.882 4.798 0 .065-.005.162-.004.227l.097-.123.185-1.602.755-.202-.357 1.325 1.604-1.498.176.05-2.13 2.674-.187.632-.069-.014c.121 1.182.374 2.297.8 3.345.087.217.206.452.306.662l2.5.397-.206.315-.358.354-1.357.008c.327.53.723 1.006 1.14 1.474 1.144-2.187 2.317-4.36 3.452-6.554l-.258.004.418-.37c1.476-2.856 2.934-5.725 4.396-8.587l-.179.177-.906-.243.22-.511-.335.445-.563-.172-.027-.22-.217.156-2.59-.73.1-.35 2.737.431-.03.493.449-.379.57.074-.095.252.193-.246 1.041.142c.338-.663.682-1.325 1.02-1.988l-.008-.03-.553-.014.468-.546-.658.564-.614.003.35-.87 1.01.15-.011-1.13-.584-.004.022-.038c-.96.2-1.917.409-2.878.609l.236.034-.206.8.277-.657-.01-.16.068.015-.058.145-.003.712-.274-.056-1.684-.487c-.082.017-.167.018-.25.035zm5.6-.95.02 1.159.099.006c.197-.388.397-.775.594-1.162l-.712-.003zm-38.233 10.406-.072.214-.668.405.446-.508.294-.11zm39.076-10.406-.617 1.2 1.353.22-.273.43-1.296-.01-.01 5.762c1.162.01 2.108.414 2.818 1.218a4.11 4.11 0 0 1 .908 1.698l3.919-.467-.083.054-.595.192-3.182.561c.074.377.118.734.118 1.166 0 1.333-.356 2.427-1.075 3.232-.71.794-1.654 1.196-2.815 1.207l.003 7.86c1.71-.005 3.32-.305 4.836-.907a12.253 12.253 0 0 0 4.05-2.638 11.854 11.854 0 0 0 2.662-3.948c.607-1.477.942-3.098.942-4.815 0-1.727-.297-3.323-.9-4.806-.602-1.482-1.514-2.77-2.665-3.912a12.228 12.228 0 0 0-4.07-2.63c-.772-.305-1.574-.498-2.406-.65l-1.622-.017zm-47.636 12.99-.867 2.077-.687.216.574-1.966.98-.327zm-2.15.673v1.812l-.03.008-1.288.022-.235-1.361 1.554-.48zm10.53-1.754-.22 2.195-.367-.16.588-2.035zm38.178-9.776c-.303.59-.616 1.177-.918 1.766l.235.034-.47.418c-1.494 2.91-2.98 5.836-4.485 8.74l1.53.398-1.743.014c-1.153 2.223-2.333 4.414-3.496 6.631a12.262 12.262 0 0 0 4.664 3.28 12.92 12.92 0 0 0 4.677.914l-.011-7.89c-1.09-.045-1.968-.441-2.65-1.2-.726-.804-1.086-1.87-1.086-3.203 0-.086.023-.182.026-.266l-.545.017.418-.37.129-.003c.101-1.035.445-1.927 1.047-2.61.683-.773 1.596-1.16 2.686-1.205l-.009-5.465zm-32.175 8.75.03-.007-.03.008zm109.61-28.238.016.545c.664-.141 1.32-.293 1.987-.435l.01-.326c-.67.075-1.343.14-2.013.216zm-110.57 29.983.008 1.356-.38-.092.372-1.264zm110.57-29.142.015 13.099c.12-.192.252-.36.37-.552.209.34.4.684.601 1.036-.317.42-.641.813-.965 1.229v22.097a10.952 10.952 0 0 1-10.995 11.002l-35.908.012c.074.083.15.149.223.232-.346.096-.703.215-1.048.313l-.373-.547-3.108-.008c.383.219.772.44 1.148.663.216.128.405.253.62.383-.284.085-.556.169-.837.257-.366.115-.735.24-1.1.36-.514-.295-1.063-.577-1.592-.868-.227.197-.461.375-.687.573-.992-.176-1.968-.313-2.972-.466.242-.23.48-.451.724-.68.733.038 1.471.074 2.2.123-.209-.114-.432-.231-.642-.345l-6.663.006c.02.01.056.033.076.044.73.01 1.45.004 2.176.031l.136.385c-.013.057-.008.11-.02.167a86.22 86.22 0 0 0-1.534-.171c-.252-.148-.505-.267-.758-.412-.59.009-1.181.004-1.773.022 0-.021-.017-.04-.016-.06l-6.345-.015c-.096.105-.172.226-.268.33-.164.01-.343.03-.507.04.082-.116.177-.245.26-.361l-.516.009c-.044.113-.095.215-.139.328-1.149.064-2.302.144-3.437.21-.125.02-.217.039-.34.058.023-.02.02-.056.044-.076.1 0 .196.017.296.018 1.118-.178 2.244-.374 3.379-.55l-22.483.007-1.08 2.004 70.14.003c.013-.03.025-.076.036-.106.124.033.257.059.38.092l12.296.005c7.185 0 13.017-5.815 13.017-13l.007-12.651c-.125.195-.266.397-.392.59-.413-.301-.83-.597-1.243-.896.344-.545.683-1.073 1.019-1.632.143.216.285.411.427.63-.065-.332-.13-.653-.198-.983.044-.073.088-.156.132-.23.078-.116.148-.232.23-.352l.003-3.366c-.315.281-.66.52-.995.752-.066-.247-.117-.49-.194-.724.422-.404.822-.837 1.151-1.376.02-.032.016-.075.037-.107l.01-16.988c-.674.143-1.351.27-2.025.413zm-127.11 34.188.993.445-.014.069.005.743-.773.013-.211-1.27zm65.967-17.385v23.423l8.126.022-.006-8.475c0-.746-.014-1.42-.057-2.023-.038-.535-.067-1.01-.138-1.483l-.198-.012.004-11.454-7.732.001zm-68.045 18.686.485-.001-.145.427-.57-.074.23-.352zm47.455-12.457 1.086-.292-1.358 2.176-1.553.48 1.825-2.364zm-47.825 13.009.594.164-.38.878-.863.037.649-1.08zm55.746-14.84.06-.017-1.04 1.67-1.29.378 2.27-2.031zm-37.391 10.05.64.702-.002 1.198-1.032-.468.393-1.431zm27.92-7.481-.736 1.718-2.912.845.08-.183-.17.207-.091.025.261-.232.185-.276 3.384-2.104zm-43.531 12.247.231.261.433.046.015.417-.448-.463-.175-.05-.056-.21zm34.284-9.09-1.082 1.035.255-.619.827-.415zm-31.708 8.562.985.415 1.333.387-.187.147-1.146-.534-1.035-.24.05-.175zm52.593-13.93.614-.003-.246.292-1.018.305.65-.595zm18.492-4.761-.02 11.394 7.107 12.039.228.004-.01-6.436-.727-.42.722.163-.006-3.525-1.071-.619.618-1.556-2.239-3.768-.48-.098-.167-.99-.36-.616-.183 1.246.056.212-.068-.014.012-.198-.219-.815.01-.81.175.05-3.12-5.247-.259.004zm-17.62 4.754.545-.017-.928.28.383-.263zm-56.203 15.189.83.198-.007.098-.94-.007.117-.29zm127.43-33.822c.022.016.084.02.106.036l-.09.024c.01-.026-.026-.035-.016-.06zm-125.12 33.624 2.12.305-.911.826-1.5-.406.29-.725zm30.012-8.01-.024.395-.293 1.081-1.781-.008.234-.936 1.864-.532zm-15.203 4.236.679.723.19-.018.02.803-1.363-.379.213-.412.227.004-.2-.141.234-.58zm22.617-6.028 1.721.509.389.122-.64.754-.077.312-.848.098.74.222-.343 1.257-1 .009.52-.593.083-.896.046-.432-2.105 1.922-.524-.021 2.038-3.264zm-24.591 6.75 1.258-.013-.002.356-1.257-.342zl.695.785.57.074-.02.167.088-.153 1.52.24.001.484-1.395-.014 1.159 1.307-.249.52-2.935-1.414.115-.419 1.91.006-.764-.798-.882-.152.187-.632zm17.725-4.36.4-.076-1.129 1.823.729-1.748zm48.26-12.35.007 1.713 2.77 1.523-.117.29-.586-.134.542.21-.626 1.527-2.002-.467-.006 1.426.131.126 1.3.266-.29.725-.262-.253.064-.244-.11.192-.702-.686-.107-.036-.007.94.869.706-.08.183.024.09-.822-.167c.001 1.042.029 1.888.066 2.538.017.305.035.583.067.855l.68.368.007 1.713.76-1.271 1.093.58-.33 1.06-1.523-.37-.578-.103.006 3.524.41.085-.206.314-.183-.08-.023 6.314 7.86-.003-.005-3.04-.655-.147.008-1.782.488.128.168.99-.017-12.741-.785.695-1.735-1.767 1.38-2.214 1.149.663-.005-.743-.641-.702.405-.659.222.103v-1.812l-.087-.203.085.074.017-.296-4.04.015.039.022-.205.443-.733-.32.058-.146-3.207-.014zm2.074 3.392-.23-.133.055.083.175.05zm-.23-.133-1.843-1.447-.003.713 1.847.734zm-40.817 7.41 1.052.301-.163.238-.163.238-1.097.132.371-.908zm-23.618 6.88.14.156.807.236-.022.039.288.472-.298-.146-.841-.001.044-.077-.05-.31.41.085-.161-.119-.178-.179-.106-.036-.033-.12zm11.22-2.684 1.478.93-.042.206-1.687-.26.25-.876zm11.786-2.737.808.236-.577.867-.682-.012.451-1.091zm-20.762 6.307.903.47-.187.632-.582-.361-.134-.74zm72.743-19.265-.002 1.683.03-.008.156.217-.185.276.012 1.615.217-.156.987.545-1.203.58.007 2.684.268.155 1.709 1.548.12-.518.337.17.489.256-.1.836.686.625-.356-1.328.352.229.003 1.099.049.181-.83-.198.096-.608-.846-.744-.187.632.01.515-.45-.106-.342-.07-1.015-2.219-.017 7.543 3.85.003.006-12.78-.314.278-.001.842v.485l-.011.197-2.119-3.8-.624-.641-.781-.018zm1.406.659.05-.66-.387.006.337.654zm2.13 3.117-.064.244.032.12.032-.364zm-67.783 13.504 1.547.945-.145.427-1.645-.466.243-.906zm-4.353 1.264.389.122-.67 1.603-.671-.208.952-1.517zm70.443-18.552 1.99 1.634.01-.326-.232-.747.075-.084.17.148-.004-.614-.485.001.103.264.076.044.002.129-.078-.173-.232-.262-1.395-.014zm-69.673 18.766.107.036-.026.265.475 1.653-.632-.187.157-1.465-.081-.302zm71.94-18.76-.023.88.84.843-.448.379-.369-.29-.004.228.081.302-.104.092.021 13 3.85.003-.011-1.614-1.102-.61-.586-.62.415-1.47.803.464-.625-1.126.465-1.646.623.513.023-.88-.488-.128.165-.594.306.177-.005-1.228-.006-6.663-3.82-.012zm-78.531 21.69 2.048 1.004.003.614-1.8-1.168-.216-.2-.035-.25zm11.75-3.116-.058.145-.038-.023.096-.122zm-7.212 2.061.703.33-.363.938-.842-.486.502-.782zm4.587-.873.19.11-.561 1.284-.42-.114.79-1.28zm.306.177 1.631 1.019-.236.807-1.79-.523.395-1.303zm66.122-17.167 2.398 2.43.004.259-1.446-.81 1.445 1.166.004 1.584-.06.016-.458-.136-.207-1.012-.25.876-.742-2.649.268.155-.292-.245-.152-.445-.255.133-.907-.727.65-.595zm-69.158 18.757 1.154.564.032.121.075-.084.588.263-.189.503-.312-.078-.162-.604-.295.468-.983-.287.092-.866zm-3.026 1.749.75.382-.283.755-.69-.398.223-.739zm65.426-17.11.939.363-.401-.41-.538.047zm-1.412.767 1.92 1.491-.104.093-2.059-1.163.243-.421zm-9.496 2.835 1.025.567.152.444.163-.237.558.27-.147.299.012 1.614-.03.008-1.906-1.074.173-1.89zm1.733 2.965-.2-1.11-.05.175.25.935zm7.062-4.674 2.412.55-.24.194-2.702.174.53-.918zm14.388-2.69.191.11-.018.296-.207-.171.034-.236zm-20.932 5.673.481.227-.9 1.47-.03.008.449-1.705zm5.164-.77.259.481.584.49-.21.186-.374-.676-.4-.28.141-.2zm15.317-3.327.421.243-.083.896-.167-.02.16.119-.142 1.397-.648-1.089.46-1.546zm-16.926 5.894 1.104.254-.064.244-1.084-.421.044-.077zm15.99-2.505.957.552-.18 1.504-.793-.79.016-1.266zm-2.723 7.103a4.533 4.533 0 0 0-1.788.932c-.012.01-.011.029-.022.038l.123.097.321 1.079-1.056-.559a3.224 3.224 0 0 0-.686 2.028c0 1.066.438 1.976 1.312 2.722.843.72 1.91 1.112 3.12 1.138l-.004-3.396-.045.076-.159.01.087-.281.106.036.018-.296-.03.008.028-.137-.017-3.684c-.144.003-.307.01-.446.023l.016.06-.19.019-.007-.03c-.236.03-.46.058-.68.117zm1.566-.193-.016 3.563.206.042-.141.2-.054-.083-.006.098.038.023-.044.076.002 3.752c.784-.014 1.507-.175 2.137-.475l-1.488-.604.095-.608.127-1.458.675-.019-.616-.126.071-.699 1.466.158.418 1.44.387-1.333 1.132.118c.006-.083.034-.15.034-.236 0-.058.023-.11.02-.167l-.985-.415.014-.069.936.234c-.104-.876-.554-1.621-1.32-2.267a4.475 4.475 0 0 0-1.164-.723l-1.473-.187-.087-.204c-.127-.01-.234-.029-.365-.031zm-2.213.916.58.233.232.747.173-.564.396.153-.183 1.246-.202-.27-.184-.565-.108.32-.786-.76.082-.54zm-.103 1.063.707.587-.064.244-.379.037.345.199-.109.32-.668-.08.054-.402.378-.037-.352-.23.088-.637zm-1.682.969 1.212-.066.143.414-1.367-.151.012-.197zm4.228-1.004.793.305-.273.43-.735.034.215-.769zm-4.216 1.292 1.416.332.018.19.058-.146.578.104-.223.74-1.855.076.009-1.296zm2.828-.435.159-.01-.034.236-.076-.044-.049-.182zm2.318-.524.985.416.026.22-.974-.257-.12.032.083-.41zm-2.225 1.114.077.044.046.053-.137-.028.014-.069zm-.051.532.304.048.113.422h-.485l.068-.47zm-2.896.905 1.818-.099-.079.312-.004.228-.006.098-.541-.21-1.172-.269-.016-.06zm2.802-.168.575-.025.071.142.028-.136.06-.017-.088.153-.267.816-.479-.098.487.128-.078.312-.435-.174.026-.266.1-.836zm3.074 1.57 1.3.266c.14-.12.241-.226.358-.355l-1.659.089z" transform="translate(-438.98 -550.36)"/></svg>