<svg xmlns="http://www.w3.org/2000/svg" width="382.689" height="382.913"><path d="M170.574 349.469c-10.855-10.856-13.335-23.367-6.864-34.641 3.918-6.827 5.285-17.162 5.285-39.962v-30.753l-22.326 22.155c-12.28 12.185-22.327 24.512-22.327 27.392 0 9.146-12.576 21.722-23.834 23.834-18.84 3.534-36.765-11.975-36.765-31.81 0-10.344 10.93-23.102 23.287-27.18 5.736-1.894 19.666-12.762 30.955-24.152l20.526-20.71h-30.515c-21.557 0-33.512 1.495-40.723 5.092-12.31 6.141-23.477 3.956-34.105-6.672-15.79-15.79-5.676-48.768 15.28-49.819 11.9-.597 19.878.726 23.109 3.833 1.666 1.602 17.413 2.913 34.992 2.913h31.962l-20.64-20.92c-11.965-12.13-24.351-21.685-29.472-22.738-11.632-2.392-24.656-18.182-24.656-29.894 0-5.725 3.536-13.231 9.242-19.617 7.65-8.562 11.553-10.343 22.664-10.343 10.727 0 14.957 1.783 21.058 8.876 4.2 4.882 7.635 11.347 7.635 14.366s10.047 15.459 22.327 27.644l22.326 22.155V109.21c0-20.542-1.56-32.58-5.215-40.244-14.628-30.677 23.952-58.98 47.838-35.094 4.624 4.625 8.574 11.442 8.776 15.15.612 11.246-.764 19.338-3.833 22.53-1.602 1.666-2.914 17.412-2.914 34.991v31.962l20.606-20.422c11.333-11.232 21.454-24.287 22.492-29.01 4.867-22.163 34.248-31.497 50.646-16.092 17.6 16.535 12.017 40.782-11.796 51.222-7.356 3.226-21.94 14.622-32.411 25.325l-19.037 19.461H276.1c18.313 0 33.402-1.447 35.345-3.39 1.864-1.865 7.935-3.52 13.49-3.678 34.167-.97 44.734 42.037 13.922 56.658-10.167 4.825-12.12 4.837-24.383.154-8.608-3.287-23.428-5.091-41.83-5.091h-28.498l19.037 19.46c10.47 10.704 25.2 22.163 32.733 25.463 23.232 10.181 28.72 34.884 11.37 51.183-16.296 15.31-45.692 5.893-50.542-16.19-1.038-4.723-11.159-17.777-22.492-29.01l-20.606-20.422v32.412c0 18.167 1.402 33.277 3.19 34.382 1.754 1.085 3.19 8.414 3.19 16.288 0 11.385-1.729 15.918-8.44 22.138-11.535 10.69-30.389 10.746-41.013.123zm-36.411-15.957c-.139-3.362.615-5.246 1.675-4.186 1.06 1.06 1.173 3.811.252 6.113-1.019 2.545-1.774 1.789-1.927-1.927zm191.115-6.644c2.184-2.632 4.689-4.785 5.566-4.785.877 0-.192 2.153-2.376 4.785-2.184 2.631-4.688 4.784-5.565 4.784-.877 0 .192-2.153 2.375-4.784zm16.57-38.274c-.066-5.262.596-7.801 1.47-5.642.874 2.16.927 6.465.118 9.568-.809 3.104-1.524 1.337-1.589-3.926zm0-194.557c-.066-5.263.596-7.802 1.47-5.642.874 2.16.927 6.465.118 9.568-.809 3.103-1.523 1.337-1.588-3.926zM134.163 49.65c-.139-3.362.615-5.246 1.675-4.186 1.06 1.06 1.173 3.811.252 6.113-1.019 2.545-1.774 1.789-1.927-1.927z" fill="#eba71f"/><path d="M167.407 377.659c-18.828-9.818-30.307-25.371-30.307-41.065 0-9.86.094-9.853-14.798-1.067-16.006 9.444-40.86 9.267-56.504-.401-24.794-15.323-33.416-49.83-18.688-74.791 3.885-6.586 7.064-12.426 7.064-12.979 0-.552-5.63-1.905-12.51-3.005-14.938-2.388-29.45-13.81-36.545-28.762-15.043-31.7 4.707-72.132 37.862-77.512 12.492-2.028 13.03-3.068 6.242-12.047-14.81-19.59-11.618-51.04 7.078-69.735 18.313-18.313 47.978-21.395 69.596-7.23 10.438 6.84 11.203 6.567 11.203-3.993C137.1 24.183 165.105.102 189.517 0c19.002-.079 38.789 10.966 48.096 26.848 4.361 7.44 7.929 16.632 7.929 20.425 0 8.05 2.425 8.476 11.065 1.945 24.482-18.51 64.99-7.809 79.95 21.12 6.674 12.908 5.871 37.534-1.71 52.404-7.794 15.288-7.828 14.353.517 14.353 3.793 0 12.984 3.568 20.425 7.928 15.158 8.883 26.9 28.878 26.9 45.807 0 24.206-20.419 50.106-42.26 53.605-6.579 1.054-11.961 2.147-11.961 2.43 0 .281 2.87 6.142 6.379 13.024 7.581 14.87 8.384 39.496 1.71 52.405-14.75 28.523-53.81 39.471-78.75 22.074-11.1-7.743-11.135-7.729-13.247 5.288-5.324 32.81-47.38 53.526-77.153 38.003zm44.18-28.313c6.711-6.22 8.44-10.753 8.44-22.138 0-7.874-1.436-15.203-3.19-16.288-1.788-1.105-3.19-16.215-3.19-34.382v-32.412l20.606 20.422c11.333 11.233 21.454 24.287 22.492 29.01 4.85 22.083 34.246 31.5 50.542 16.19 17.35-16.3 11.862-41.002-11.37-51.183-7.533-3.3-22.263-14.759-32.733-25.462l-19.037-19.461h28.499c18.401 0 33.221 1.804 41.829 5.09 12.262 4.684 14.216 4.672 24.383-.153 30.812-14.621 20.245-57.629-13.921-56.658-5.556.158-11.627 1.813-13.491 3.678-1.943 1.943-17.032 3.39-35.345 3.39h-31.954l19.037-19.46c10.47-10.704 25.055-22.1 32.411-25.326 23.813-10.44 29.397-34.687 11.796-51.222-16.398-15.405-45.779-6.07-50.646 16.092-1.038 4.723-11.159 17.778-22.492 29.01l-20.606 20.422v-31.962c0-17.579 1.312-33.325 2.914-34.992 3.069-3.19 4.445-11.283 3.833-22.529-.202-3.708-4.152-10.525-8.776-15.15-23.886-23.886-62.466 4.417-47.838 35.094 3.655 7.664 5.215 19.702 5.215 40.244v29.308l-22.326-22.155c-12.28-12.185-22.327-24.625-22.327-27.644 0-3.02-3.435-9.484-7.635-14.366-6.101-7.093-10.331-8.876-21.058-8.876-11.111 0-15.014 1.78-22.664 10.343-5.706 6.386-9.242 13.892-9.242 19.617 0 11.712 13.024 27.502 24.656 29.894 5.12 1.053 17.507 10.609 29.472 22.737l20.64 20.921h-31.962c-17.58 0-33.326-1.31-34.992-2.913-3.23-3.107-11.208-4.43-23.11-3.833-20.955 1.051-31.07 34.029-15.279 49.82 10.628 10.627 21.795 12.812 34.105 6.671 7.21-3.597 19.166-5.092 40.723-5.092h30.515l-20.526 20.71c-11.29 11.39-25.219 22.258-30.955 24.151-12.357 4.079-23.287 16.837-23.287 27.182 0 19.834 17.925 35.343 36.765 31.809 11.258-2.112 23.834-14.688 23.834-23.834 0-2.88 10.047-15.207 22.327-27.392l22.326-22.155v30.753c0 22.8-1.367 33.135-5.285 39.962-16.065 27.99 23.86 56.776 47.877 34.518z" fill="#050402"/></svg>